<?xml version="1.0" encoding="UTF-8" standalone="no"?>
<!DOCTYPE svg PUBLIC "-//W3C//DTD SVG 1.1//EN" "http://www.w3.org/Graphics/SVG/1.1/DTD/svg11.dtd">
<svg width="100%" height="100%" viewBox="0 0 596 842" version="1.1" xmlns="http://www.w3.org/2000/svg" xmlns:xlink="http://www.w3.org/1999/xlink" xml:space="preserve" xmlns:serif="http://www.serif.com/" style="fill-rule:evenodd;clip-rule:evenodd;stroke-linejoin:round;stroke-miterlimit:1.41421;">
    <path d="M268.51,327.135L268.51,350.932C266.444,351.732 264.814,353.364 264.011,355.428L250.83,355.428L250.83,348.267C258.96,345.115 256.66,333.055 247.993,333.055C239.311,333.055 237.046,345.124 245.157,348.267L245.157,355.428L206.87,355.428C206.436,335.252 225.29,321.873 241.776,329.417C239.197,309.302 253.034,291.673 268.509,296.783C268.51,306.913 268.51,316.972 268.51,327.135M284.993,324.59C284.993,332.21 284.993,369.144 284.993,374.866L248.246,374.866C245.102,366.754 233.033,369.021 233.033,377.703C233.033,386.397 245.109,388.633 248.246,380.539L284.993,380.539L284.993,422.544L271.613,422.544C270.474,419.598 267.631,417.502 264.282,417.502C259.93,417.502 256.402,421.029 256.402,425.381C256.402,434.076 268.482,436.313 271.612,428.217L284.992,428.217L284.992,430.814C284.992,446.639 275.223,459.514 263.217,459.514C253.37,459.514 245.067,450.832 242.389,438.987L242.389,402.933L258.578,402.933C259.72,405.878 262.562,407.976 265.911,407.976C270.263,407.976 273.79,404.448 273.79,400.096C273.79,395.744 270.263,392.217 265.911,392.217C262.562,392.217 259.72,394.314 258.578,397.26C253.49,397.26 241.172,397.26 236.715,397.26C236.715,407.423 236.715,417.48 236.715,427.609C220.731,430.844 206.845,417.352 206.845,400.589C206.845,391.043 211.439,382.551 218.08,377.703C213.098,374.065 209.078,368.21 207.528,361.101L219.038,361.101L219.038,400.645C210.923,403.786 213.193,415.857 221.874,415.857C230.567,415.857 232.806,403.78 224.711,400.645L224.711,361.1C231.969,361.1 256.147,361.1 264.011,361.1C267.159,369.212 279.227,366.945 279.227,358.264C279.227,354.914 277.128,352.073 274.183,350.932C274.183,345.767 274.183,305.085 274.183,299.835C280.636,304.82 284.993,314.039 284.993,324.59ZM232.838,318.258C204.29,317.276 186.903,353.234 205.343,377.703C187.042,401.994 204.069,438.137 232.838,437.147C235.289,454.762 247.918,468.59 263.217,468.59C280.229,468.59 294.067,451.644 294.067,430.814C294.067,426.81 294.067,428.79 294.067,422.543C294.067,408.677 294.067,327.663 294.067,324.59C294.067,308.494 285.788,294.754 274.182,289.322C255.592,280.66 236.016,295.354 232.838,318.258Z" style="fill:rgb(231,76,60);fill-rule:nonzero;"/>
    <path d="M326.812,404.472C328.877,403.672 330.507,402.04 331.308,399.976L344.49,399.976L344.49,407.137C336.359,410.289 338.661,422.348 347.326,422.348C356.008,422.348 358.274,410.279 350.161,407.137L350.161,399.976L388.448,399.976C388.884,420.164 370.035,433.518 353.542,425.987C356.153,446.329 342.096,463.69 326.812,458.619C326.812,446.14 326.812,415.078 326.812,404.472M310.326,430.812C310.326,423.195 310.326,386.257 310.326,380.538L347.073,380.538C350.223,388.648 362.288,386.384 362.288,377.701C362.288,369.032 350.228,366.74 347.073,374.865L310.326,374.865C310.326,367.268 310.326,341.731 310.326,332.859L323.706,332.859C326.849,340.972 338.918,338.704 338.918,330.023C338.918,321.329 326.841,319.092 323.706,327.186L310.326,327.186L310.326,324.59C310.326,308.764 320.095,295.89 332.1,295.89C341.949,295.89 350.25,304.57 352.929,316.417L352.929,352.47L336.743,352.47C333.594,344.356 321.529,346.628 321.529,355.306C321.529,363.975 333.589,366.27 336.743,358.142C341.829,358.142 354.143,358.142 358.603,358.142L358.603,352.469L358.603,327.793C374.647,324.546 388.474,338.115 388.474,354.814C388.474,364.395 383.862,372.861 377.241,377.699C382.235,381.349 386.249,387.206 387.791,394.301L376.284,394.301L376.284,354.76C379.228,353.619 381.327,350.777 381.327,347.428C381.327,343.076 377.799,339.548 373.447,339.548C369.094,339.548 365.566,343.075 365.566,347.428C365.566,350.777 367.663,353.619 370.609,354.76L370.609,394.303C363.378,394.303 339.149,394.303 331.307,394.303C328.162,386.186 316.095,388.462 316.095,397.14C316.095,400.489 318.191,403.331 321.137,404.473C321.137,421.516 321.137,438.49 321.137,455.568C314.682,450.582 310.326,441.366 310.326,430.812ZM362.481,437.147C392.263,437.825 407.783,401.331 389.975,377.701C394.701,371.428 397.548,363.474 397.548,354.816C397.548,334.549 381.931,317.758 362.481,318.256C361.835,313.62 360.493,309.28 358.603,305.378C342.561,272.235 301.25,286.56 301.25,324.59C301.25,328.593 301.25,326.613 301.25,332.859C301.25,346.727 301.25,427.739 301.25,430.812C301.25,452.7 316.064,468.588 332.1,468.588C347.344,468.588 360.007,454.964 362.481,437.147Z" style="fill:rgb(231,76,60);fill-rule:nonzero;"/>
    <path d="M81.867,509.905C79.492,511.239 77.607,513.136 76.2,515.584C74.792,518.032 74.082,520.664 74.082,523.479L74.082,555.083L58.281,555.083L58.281,523.479C58.281,514.875 61.365,507.457 67.522,501.227C73.679,494.997 81.132,491.876 89.884,491.876L121.255,491.876L121.255,555.083L105.686,555.083L105.686,507.678L97.669,507.678L97.669,555.083L81.867,555.083L81.867,509.905Z" style="fill:rgb(231,76,60);fill-rule:nonzero;"/>
    <rect x="123.936" y="491.876" width="15.802" height="63.207" style="fill:rgb(231,76,60);"/>
    <path d="M177.35,507.678L161.549,507.678L161.549,555.083L145.747,555.083L145.747,491.876L177.35,491.876C185.955,491.876 193.335,494.997 199.492,501.227C205.649,507.457 208.721,514.874 208.721,523.479L208.721,555.083L193.152,555.083L193.152,523.479C193.152,519.183 191.585,515.474 188.476,512.353C185.355,509.232 181.647,507.678 177.35,507.678" style="fill:rgb(231,76,60);fill-rule:nonzero;"/>
    <path d="M258.807,539.281L258.807,523.479L234.988,523.479C232.76,523.479 230.912,524.263 229.431,525.817C227.95,527.372 227.204,529.195 227.204,531.264C227.204,533.492 227.951,535.389 229.431,536.943C230.912,538.497 232.76,539.281 234.988,539.281L258.807,539.281ZM274.376,555.083L234.988,555.083C228.464,555.083 222.895,552.782 218.305,548.179C213.703,543.577 211.402,537.947 211.402,531.264C211.402,524.887 213.703,519.367 218.305,514.691C222.895,510.015 228.464,507.678 234.988,507.678L258.807,507.678L258.807,491.877L274.376,491.877L274.376,555.083Z" style="fill:rgb(231,76,60);fill-rule:nonzero;"/>
    <path d="M296.861,531.264C291.378,531.264 286.702,529.379 282.847,525.597C278.991,521.815 277.058,517.176 277.058,511.68C277.058,506.343 278.992,501.705 282.847,497.775C286.702,493.846 291.378,491.876 296.861,491.876L340.264,491.876L340.264,507.677L296.861,507.677C294.193,507.677 292.859,509.011 292.859,511.68C292.859,512.72 293.226,513.614 293.973,514.36C294.708,515.094 295.674,515.462 296.862,515.462L320.448,515.462C325.797,515.462 330.399,517.432 334.255,521.361C338.11,525.302 340.032,529.929 340.032,535.278C340.032,540.762 338.11,545.437 334.255,549.293C330.399,553.148 325.797,555.083 320.448,555.083L277.058,555.083L277.058,539.061L320.448,539.061C321.341,539.061 322.198,538.694 323.018,537.947C323.826,537.2 324.242,536.319 324.242,535.279C324.242,534.239 323.826,533.308 323.018,532.488C322.198,531.68 321.341,531.264 320.448,531.264L296.861,531.264Z" style="fill:rgb(231,76,60);fill-rule:nonzero;"/>
    <path d="M358.513,515.462L390.116,515.462L390.116,491.876L405.685,491.876L405.685,555.083L390.116,555.083L390.116,531.264L358.513,531.264L358.513,555.083L342.711,555.083L342.711,491.876L358.513,491.876L358.513,515.462Z" style="fill:rgb(231,76,60);fill-rule:nonzero;"/>
    <path d="M439.969,539.281L455.771,539.281L455.771,491.876L471.34,491.876L471.34,555.083L439.969,555.083C431.218,555.083 423.764,551.998 417.607,545.842C411.45,539.685 408.366,532.231 408.366,523.48L408.366,491.877L424.168,491.877L424.168,523.48C424.168,527.936 425.686,531.681 428.733,534.716C431.768,537.763 435.514,539.281 439.969,539.281" style="fill:rgb(231,76,60);fill-rule:nonzero;"/>
    <path d="M474.021,555.083L474.021,491.876L517.411,491.876C522.76,491.876 527.362,493.847 531.218,497.775C535.073,501.704 536.995,506.343 536.995,511.68C536.995,516.135 535.734,520.064 533.213,523.479C535.734,527.041 536.995,530.97 536.995,535.278C536.995,540.762 535.073,545.437 531.218,549.293C527.362,553.148 522.76,555.083 517.411,555.083L474.021,555.083ZM489.822,539.061L517.411,539.061C518.304,539.061 519.161,538.73 519.981,538.057C520.789,537.384 521.205,536.466 521.205,535.279C521.205,532.904 520.091,531.57 517.864,531.264L489.823,531.264L489.823,539.061L489.822,539.061ZM489.822,515.462L517.411,515.462C518.304,515.462 519.161,515.095 519.981,514.36C520.789,513.613 521.205,512.72 521.205,511.68C521.205,510.652 520.789,509.722 519.981,508.901C519.161,508.093 518.304,507.677 517.411,507.677L489.822,507.677L489.822,515.462Z" style="fill:rgb(231,76,60);fill-rule:nonzero;"/>
</svg>
